:FULLY-SPECIFIED
:FORCE-ALL-JOINTS-BE-3DOF
:DEGREES
204
root -2.89879 16.313 -36.1148 3.74462 0.724504 -2.95427
lfemur -23.9243 6.70626 -8.1427
ltibia 48.7284 -0 0
lfoot -23.8421 0.401774 4.00059e-05
ltoes -9.81008 0 0
rfemur -23.8025 -7.55524 14.6826
rtibia 50.7391 -0 0
rfoot -27.6488 1.94676 6.18585e-05
rtoes -8.52403 0 0
lowerback 7.32195 1.95335 -1.63739
upperback -3.74644 2.5452 1.31865
thorax -8.20002 1.37435 1.94588
lowerneck -3.414 -3.91625 -6.56083
upperneck 6.84439 -5.28355 6.00616
head 0 0 0
lclavicle 8.39089e-15 2.32578e-14 0
lhumerus -26.5533 -1.87974 88.8366
lradius 24.3586 -0 0
lwrist -31.318 0 0
lhand -28.2793 30.0631 4.64276e-06
lfingers 7.12502 -0 0
lthumb -1.65564 60.0365 4.51052e-06
rclavicle 8.39089e-15 2.32578e-14 0
rhumerus -32.2956 1.95657 -79.8539
rradius 30.4393 -0 0
rwrist 3.16137 0 0
rhand -19.8198 -27.0116 -2.82816e-05
rfingers 7.12502 -0 0
rthumb 6.51377 -56.8914 -2.67083e-05
205
root -2.8993 16.3118 -36.114 3.73595 0.72847 -2.95456
lfemur -23.9341 6.71989 -8.13592
ltibia 48.7714 -0 0
lfoot -23.8662 0.398674 3.25211e-05
ltoes -9.83439 0 0
rfemur -23.8096 -7.57113 14.6847
rtibia 50.783 -0 0
rfoot -27.6745 1.94226 5.02852e-05
rtoes -8.56351 0 0
lowerback 7.32105 1.95505 -1.63577
upperback -3.74135 2.54753 1.31761
thorax -8.19398 1.37527 1.94363
lowerneck -3.41594 -3.91835 -6.55806
upperneck 6.84497 -5.28648 6.00643
head 0 0 0
lclavicle 8.39089e-15 2.32578e-14 0
lhumerus -26.5441 -1.89654 88.8535
lradius 24.3651 -0 0
lwrist -31.3085 0 0
lhand -28.2817 30.0595 3.77414e-06
lfingers 7.12502 -0 0
lthumb -1.65797 60.0329 3.66664e-06
rclavicle 8.39089e-15 2.32578e-14 0
rhumerus -32.2931 1.96318 -79.8567
rradius 30.4481 -0 0
rwrist 3.15365 0 0
rhand -19.8135 -27.0199 -2.29904e-05
rfingers 7.12502 -0 0
rthumb 6.51986 -56.8996 -2.17114e-05
206
root -2.89974 16.3107 -36.1133 3.72818 0.732025 -2.95482
lfemur -23.9428 6.73211 -8.12984
ltibia 48.8099 -0 0
lfoot -23.8879 0.395896 2.47018e-05
ltoes -9.85618 0 0
rfemur -23.8161 -7.58537 14.6865
rtibia 50.8223 -0 0
rfoot -27.6976 1.93823 3.81947e-05
rtoes -8.5989 0 0
lowerback 7.32024 1.95656 -1.63431
upperback -3.73679 2.54962 1.31668
thorax -8.18856 1.3761 1.9416
lowerneck -3.41767 -3.92023 -6.55558
upperneck 6.84549 -5.2891 6.00667
head 0 0 0
lclavicle 8.39089e-15 2.32578e-14 0
lhumerus -26.536 -1.9116 88.8686
lradius 24.3709 -0 0
lwrist -31.3001 0 0
lhand -28.2838 30.0563 2.86669e-06
lfingers 7.12502 -0 0
lthumb -1.66005 60.0296 2.78504e-06
rclavicle 8.39089e-15 2.32578e-14 0
rhumerus -32.2909 1.96909 -79.8593
rradius 30.4559 -0 0
rwrist 3.14673 0 0
rhand -19.8078 -27.0274 -1.74626e-05
rfingers 7.12502 -0 0
rthumb 6.52533 -56.907 -1.64912e-05
207
root -2.90011 16.3098 -36.1127 3.72147 0.735097 -2.95504
lfemur -23.9504 6.74267 -8.12459
ltibia 48.8432 -0 0
lfoot -23.9066 0.393495 1.71011e-05
ltoes -9.87501 0 0
rfemur -23.8216 -7.59767 14.6882
rtibia 50.8563 -0 0
rfoot -27.7175 1.93474 2.64423e-05
rtoes -8.62948 0 0
lowerback 7.31954 1.95787 -1.63306
upperback -3.73285 2.55143 1.31587
thorax -8.18389 1.37682 1.93986
lowerneck -3.41917 -3.92186 -6.55343
upperneck 6.84594 -5.29137 6.00688
head 0 0 0
lclavicle 8.39089e-15 2.32578e-14 0
lhumerus -26.5289 -1.92461 88.8817
lradius 24.3759 -0 0
lwrist -31.2928 0 0
lhand -28.2857 30.0535 1.98462e-06
lfingers 7.12502 -0 0
lthumb -1.66185 60.0268 1.92809e-06
rclavicle 8.39089e-15 2.32578e-14 0
rhumerus -32.2889 1.97421 -79.8615
rradius 30.4627 -0 0
rwrist 3.14075 0 0
rhand -19.803 -27.0339 -1.20894e-05
rfingers 7.12502 -0 0
rthumb 6.53005 -56.9133 -1.14169e-05
208
root -2.90039 16.309 -36.1122 3.71597 0.737612 -2.95523
lfemur -23.9566 6.75132 -8.12029
ltibia 48.8704 -0 0
lfoot -23.9219 0.39153 1.02934e-05
ltoes -9.89042 0 0
rfemur -23.8262 -7.60774 14.6895
rtibia 50.8842 -0 0
rfoot -27.7338 1.93189 1.5916e-05
rtoes -8.65451 0 0
lowerback 7.31896 1.95894 -1.63203
upperback -3.72962 2.5529 1.31521
thorax -8.18005 1.37741 1.93843
lowerneck -3.4204 -3.92319 -6.55167
upperneck 6.8463 -5.29322 6.00705
head 0 0 0
lclavicle 8.39089e-15 2.32578e-14 0
lhumerus -26.5231 -1.93526 88.8924
lradius 24.38 -0 0
lwrist -31.2868 0 0
lhand -28.2872 30.0512 1.19457e-06
lfingers 7.12502 -0 0
lthumb -1.66332 60.0245 1.16055e-06
rclavicle 8.39089e-15 2.32578e-14 0
rhumerus -32.2874 1.97839 -79.8634
rradius 30.4683 -0 0
rwrist 3.13586 0 0
rhand -19.7989 -27.0392 -7.2768e-06
rfingers 7.12502 -0 0
rthumb 6.53392 -56.9185 -6.872e-06
209
root -2.9006 16.3085 -36.1118 3.71185 0.739499 -2.95536
lfemur -23.9613 6.7578 -8.11707
ltibia 48.8909 -0 0
lfoot -23.9334 0.390055 4.84286e-06
ltoes -9.90199 0 0
rfemur -23.8296 -7.6153 14.6905
rtibia 50.905 -0 0
rfoot -27.746 1.92975 7.48819e-06
rtoes -8.67329 0 0
lowerback 7.31853 1.95975 -1.63125
upperback -3.7272 2.55401 1.31472
thorax -8.17718 1.37785 1.93736
lowerneck -3.42132 -3.92419 -6.55036
upperneck 6.84658 -5.29461 6.00717
head 0 0 0
lclavicle 8.39089e-15 2.32578e-14 0
lhumerus -26.5188 -1.94326 88.9004
lradius 24.3831 -0 0
lwrist -31.2823 0 0
lhand -28.2883 30.0495 5.62023e-07
lfingers 7.12502 -0 0
lthumb -1.66443 60.0228 5.46016e-07
rclavicle 8.39089e-15 2.32578e-14 0
rhumerus -32.2862 1.98153 -79.8647
rradius 30.4725 -0 0
rwrist 3.13219 0 0
rhand -19.7959 -27.0432 -3.42359e-06
rfingers 7.12502 -0 0
rthumb 6.53682 -56.9224 -3.23315e-06
